Coordinates
version=1
nRows=24
nColumns=24
inDegrees=yes

Units are S.I. units (second, meters, Newtons, ...)
Angles are in degrees.

endheader
time	pelvis_tilt	pelvis_list	pelvis_rotation	pelvis_tx	pelvis_ty	pelvis_tz	hip_flexion_r	hip_adduction_r	hip_rotation_r	knee_angle_r	ankle_angle_r	subtalar_angle_r	mtp_angle_r	hip_flexion_l	hip_adduction_l	hip_rotation_l	knee_angle_l	ankle_angle_l	subtalar_angle_l	mtp_angle_l	lumbar_extension	lumbar_bending	lumbar_rotation
      2.75500000	     24.93770890	     -1.06237107	      1.67919444	     -0.68103805	      1.01816768	      0.00103893	    -38.83076106	      2.75483591	     -7.43027700	     -5.49001584	     16.19043457	     -6.81036724	     11.68964858	     -7.87144784	     -2.71064357	     -7.25704356	      0.49088010	     -0.43232424	      2.35930457	     25.83442310	    -41.64654403	      0.25138593	      2.70976852
      2.76000000	     24.99753184	     -1.07065601	      1.46702166	     -0.67561988	      1.01760298	      0.00078812	    -39.02110405	      2.56882882	     -7.28098640	     -5.87788060	     16.36999005	     -6.69062664	     11.64923119	     -7.88070992	     -2.61369872	     -7.49896763	      0.12994030	     -0.76989765	      2.25722494	     25.83794013	    -41.71763528	      0.10726243	      2.82972066
      2.76500000	     25.13514994	     -1.08233773	      1.22432915	     -0.67016123	      1.01716548	      0.00057837	    -39.29328554	      2.36239131	     -7.10031076	     -6.26825517	     16.48335943	     -6.50008963	     11.61048495	     -7.96522481	     -2.52511964	     -7.80343746	     -0.32321465	     -1.10537894	      2.17061615	     25.88250437	    -41.86727962	     -0.05567641	      2.96461156
      2.77000000	     25.19888893	     -1.06697351	      1.01018027	     -0.66469564	      1.01669611	      0.00035782	    -39.45418635	      2.15069325	     -6.94648074	     -6.71825090	     16.61085812	     -6.43042892	     11.63166005	     -7.93301618	     -2.42401635	     -8.00778107	     -0.88388753	     -1.53044393	      2.04786720	     25.87833948	    -41.93978071	     -0.23390060	      3.06934561
      2.77500000	     25.28292856	     -1.07088455	      0.78087857	     -0.65922969	      1.01629956	      0.00013843	    -39.61595154	      1.93981894	     -6.74667220	     -7.19933927	     16.69526708	     -6.33677145	     11.68675328	     -7.90762779	     -2.34775605	     -8.20376418	     -1.51866175	     -1.97988170	      1.84728125	     25.86649034	    -42.03449913	     -0.40479856	      3.19395411
      2.78000000	     25.37355054	     -1.05962012	      0.55224308	     -0.65374943	      1.01595784	     -0.00007903	    -39.76547444	      1.71389922	     -6.53982326	     -7.71463047	     16.75170040	     -6.26228968	     11.77960125	     -7.87583815	     -2.26320184	     -8.35226887	     -2.21325115	     -2.45895980	      1.59236013	     25.84795108	    -42.13511910	     -0.59363294	      3.30762567
      2.78500000	     25.48689805	     -1.04355346	      0.34174405	     -0.64826319	      1.01567960	     -0.00034454	    -39.92738859	      1.49178373	     -6.33767888	     -8.24667721	     16.74879993	     -6.20960762	     12.10590440	     -7.85782139	     -2.17749867	     -8.39816470	     -2.95159486	     -2.95714297	      1.15636706	     25.87408215	    -42.25876040	     -0.77545707	      3.42454249
      2.79000000	     25.51802697	     -0.99215589	      0.20034248	     -0.64277950	      1.01537122	     -0.00067593	    -39.97298890	      1.28653828	     -6.16897784	     -8.82552485	     16.58968748	     -6.32766663	     13.33187743	     -7.71657757	     -2.07064736	     -8.27944238	     -3.74885455	     -3.52067748	      0.61362748	     26.00367107	    -42.30166033	     -0.95239637	      3.41197927
      2.79500000	     25.57138285	     -0.95974419	     -0.03505478	     -0.63722655	      1.01515646	     -0.00086991	    -39.99953467	      1.03293255	     -5.94417116	     -9.48553418	     16.59690691	     -6.29191801	     13.45345411	     -7.60226659	     -1.98779805	     -8.38716250	     -4.60387107	     -3.89884722	      0.37222541	     25.95507570	    -42.35711055	     -1.17697658	      3.54522987
      2.80000000	     25.57967762	     -0.89472180	     -0.15933592	     -0.63171475	      1.01492749	     -0.00126082	    -39.95664057	      0.81910628	     -5.79867635	    -10.16982350	     16.27575429	     -6.48179711	     15.94797217	     -7.40845722	     -1.87631693	     -8.18374412	     -5.49728456	     -4.25246688	     -0.17701161	     25.61524007	    -42.37521304	     -1.35489783	      3.52611188
      2.80500000	     25.65362191	     -0.88326169	     -0.34719557	     -0.62622549	      1.01485952	     -0.00153603	    -39.94812841	      0.61452565	     -5.50900041	    -10.91291198	     16.15900344	     -6.54127805	     16.09963781	     -7.29988011	     -1.82225983	     -8.10605218	     -6.39557465	     -4.56705308	     -0.66060216	     25.48388072	    -42.46177183	     -1.53437795	      3.64829357
      2.81000000	     25.65486955	     -0.82870005	     -0.46789157	     -0.62070960	      1.01474758	     -0.00193787	    -39.82849354	      0.41210339	     -5.31945013	    -11.72163031	     15.99108575	     -6.63042127	     16.40805709	     -7.08043302	     -1.72795932	     -7.88131082	     -7.35532051	     -4.78080920	     -1.23662290	     25.27649564	    -42.47329206	     -1.70615971	      3.67588436
      2.81500000	     25.66158442	     -0.71574352	     -0.55623115	     -0.61508295	      1.01470119	     -0.00237985	    -39.70287378	      0.17526456	     -5.23094034	    -12.54495461	     15.47818529	     -6.84372797	     19.56291527	     -6.86844523	     -1.57679513	     -7.62644687	     -8.34549069	     -4.69031506	     -1.64504256	     23.60955176	    -42.48138119	     -1.91280218	      3.60722915
      2.82000000	     25.66069498	     -0.65920418	     -0.67378761	     -0.60953709	      1.01470855	     -0.00279386	    -39.50198031	     -0.02743479	     -5.02408888	    -13.48510874	     15.23419379	     -6.98992421	     19.68664925	     -6.65199100	     -1.48041953	     -7.37153504	     -9.33099472	     -4.69916155	     -2.18608306	     23.42621077	    -42.48898354	     -2.08788278	      3.66499932
      2.82500000	     25.66294756	     -0.53127611	     -0.71676390	     -0.60388179	      1.01476365	     -0.00334950	    -39.29306967	     -0.25858770	     -5.01329039	    -14.44330899	     14.66963812	     -7.18220797	     22.42713652	     -6.43570331	     -1.31041412	     -7.01187301	    -10.34830687	     -4.35441124	     -2.53998053	     21.17057887	    -42.49224244	     -2.27588242	      3.59211055
      2.83000000	     25.64402759	     -0.43271721	     -0.75985616	     -0.59824679	      1.01484662	     -0.00388360	    -39.01595944	     -0.45903922	     -4.92232358	    -15.47514778	     14.17152628	     -7.37579909	     23.91417110	     -6.18729563	     -1.17441876	     -6.69687864	    -11.39580941	     -3.95786962	     -2.88717403	     19.30349693	    -42.47662929	     -2.43942925	      3.53064024
      2.83500000	     25.60943320	     -0.35563112	     -0.81164566	     -0.59259762	      1.01496608	     -0.00444362	    -38.66464922	     -0.65269278	     -4.82820098	    -16.60796412	     13.74125539	     -7.47509746	     24.06528827	     -5.94586146	     -1.05180333	     -6.36287658	    -12.40133314	     -3.68329829	     -3.35276685	     19.13838768	    -42.44111343	     -2.58702784	      3.53069695
      2.84000000	     25.61097368	     -0.19090864	     -0.81267435	     -0.58681185	      1.01516745	     -0.00511644	    -38.34736706	     -0.90963512	     -4.92264863	    -17.73896491	     12.93640963	     -7.69071621	     27.39524122	     -5.77076701	     -0.83155161	     -6.00141082	    -13.38346364	     -3.09555160	     -3.60054884	     16.66105065	    -42.43337650	     -2.77560563	      3.40180446
      2.84500000	     25.57497267	     -0.07684397	     -0.81956202	     -0.58104989	      1.01536571	     -0.00579569	    -37.92619447	     -1.12762879	     -4.95247110	    -18.97075606	     12.19259005	     -7.88137252	     29.26679145	     -5.56699390	     -0.66266219	     -5.65121612	    -14.35687489	     -2.43359703	     -3.80652858	     14.49008257	    -42.38664027	     -2.91972234	      3.34907246
      2.85000000	     25.53926493	      0.03540922	     -0.82858875	     -0.57528082	      1.01558824	     -0.00648868	    -37.45114937	     -1.35738113	     -5.02071563	    -20.29887519	     11.56299976	     -7.89418542	     29.46583345	     -5.39241214	     -0.48973164	     -5.31968862	    -15.27145253	     -1.97061890	     -4.11845249	     14.33041917	    -42.33952231	     -3.06238103	      3.29940180
      2.85500000	     25.54662672	      0.21270666	     -0.79046241	     -0.56937678	      1.01590711	     -0.00731241	    -37.02546897	     -1.63878041	     -5.24300207	    -21.59421253	     10.47642126	     -8.12390573	     33.19414264	     -5.32079377	     -0.23749612	     -4.94112398	    -16.10414164	     -1.26079625	     -4.27717365	     12.02655277	    -42.32566568	     -3.22449959	      3.14660063
      2.86000000	     25.51086057	      0.34067047	     -0.78901023	     -0.56351403	      1.01618559	     -0.00805722	    -36.47906266	     -1.89635458	     -5.36943637	    -23.00122056	      9.51276228	     -8.35815836	     35.33001540	     -5.21855338	     -0.04306484	     -4.68043851	    -16.92291861	     -0.47392999	     -4.35846903	     10.02688844	    -42.26679262	     -3.36764194	      3.07070231
      2.86500000	     25.47602656	      0.50445240	     -0.77110844	     -0.55759472	      1.01650268	     -0.00890228	    -35.90196424	     -2.20412824	     -5.60028031	    -24.45486046	      8.47414271	     -8.46624217	     37.26427052	     -5.17561544	      0.20241465	     -4.39448960	    -17.62812326	      0.18680892	     -4.49737633	      8.61858790	    -42.20285433	     -3.52177641	      2.95856381
      2.87000000	     25.43325585	      0.65392058	     -0.76362104	     -0.55167178	      1.01682702	     -0.00974416	    -35.27489953	     -2.51527119	     -5.81836589	    -25.95043821	      7.34816799	     -8.63725877	     39.30841002	     -5.16663496	      0.43170088	     -4.16673005	    -18.26165713	      0.85775293	     -4.57222485	      7.41779799	    -42.12748048	     -3.66610904	      2.86599994
